<svg enable-background="new 0 0 512 512" height="512" viewBox="0 0 512 512" width="512" xmlns="http://www.w3.org/2000/svg"><g id="_x32_6_Fill_Up_A_Form"><g><path d="m362.245 63.289v76.554l-159.216 159.215-23.056 65.768c-2.178 6.375 3.878 12.538 10.253 10.253l65.769-23.003 106.25-106.197v202.884c0 24.438-19.816 44.147-44.2 44.147h-267.538c-24.384 0-44.2-19.709-44.2-44.147v-385.474c0-24.437 19.816-44.2 44.2-44.2h267.538c24.384 0 44.2 19.763 44.2 44.2z" fill="#cce0f1"/><g><path d="m295.406 89.218h-222.274c-2.936 0-5.313-2.379-5.313-5.313s2.376-5.313 5.313-5.313h222.274c2.936 0 5.313 2.379 5.313 5.313s-2.376 5.313-5.313 5.313z" fill="#36474f"/></g><g><path d="m183.563 147.573h-110.431c-2.936 0-5.313-2.379-5.313-5.313s2.376-5.313 5.313-5.313h110.432c2.936 0 5.313 2.379 5.313 5.313s-2.377 5.313-5.314 5.313z" fill="#36474f"/></g><g><path d="m256.024 205.927h-182.892c-2.936 0-5.313-2.379-5.313-5.313s2.376-5.313 5.313-5.313h182.892c2.936 0 5.313 2.379 5.313 5.313s-2.376 5.313-5.313 5.313z" fill="#36474f"/></g><g><path d="m207.081 264.282h-133.949c-2.936 0-5.313-2.379-5.313-5.313s2.376-5.313 5.313-5.313h133.949c2.936 0 5.313 2.379 5.313 5.313s-2.377 5.313-5.313 5.313z" fill="#36474f"/></g><g><path d="m155.538 322.636h-82.406c-2.936 0-5.313-2.379-5.313-5.313s2.376-5.313 5.313-5.313h82.406c2.936 0 5.313 2.379 5.313 5.313s-2.377 5.313-5.313 5.313z" fill="#36474f"/></g><g><path d="m183.563 380.991h-110.431c-2.936 0-5.313-2.379-5.313-5.313s2.376-5.313 5.313-5.313h110.432c2.936 0 5.313 2.379 5.313 5.313s-2.377 5.313-5.314 5.313z" fill="#36474f"/></g><g><path d="m296.257 439.345h-223.125c-2.936 0-5.313-2.379-5.313-5.313s2.376-5.313 5.313-5.313h223.125c2.936 0 5.313 2.379 5.313 5.313s-2.377 5.313-5.313 5.313z" fill="#36474f"/></g><path d="m179.973 364.826c-2.178 6.375 3.878 12.538 10.253 10.253l65.769-23.003 106.25-106.197v22.525l-97.538 97.537-69.222 24.225c-10.574 3.6-21.522-.406-27.519-8.871-4.463-6.322-5.578-14.503-2.975-21.782l24.172-69.169 173.081-173.027v22.525l-159.215 159.216z" opacity=".1"/><path d="m501.008 107.102-244.983 244.984-65.788 23.014c-6.313 2.241-12.492-3.937-10.252-10.252l23.016-65.786 244.984-244.983c6.246-6.246 16.294-6.246 22.539-.001l30.483 30.483c6.248 6.247 6.248 16.295.001 22.541z" fill="#3eb655"/><path d="m469.017 139.094 31.991-31.991c6.246-6.246 6.246-16.294-.001-22.541l-30.483-30.483c-6.245-6.245-16.293-6.245-22.539.001l-31.991 31.99z" fill="#d81a60"/><path d="m256.025 352.086-65.768 23.015c-6.374 2.23-12.5-3.896-10.27-10.27l23.015-65.768z" fill="#faa629"/></g></g></svg>